<svg id="visual" viewBox="0 0 900 600" width="900" height="600" xmlns="http://www.w3.org/2000/svg" xmlns:xlink="http://www.w3.org/1999/xlink" version="1.1"><path d="M0 43L82 121L164 91L245 55L327 133L409 97L491 91L573 49L655 91L736 43L818 115L900 91L900 0L818 0L736 0L655 0L573 0L491 0L409 0L327 0L245 0L164 0L82 0L0 0Z" fill="#050807"></path><path d="M0 307L82 247L164 289L245 169L327 241L409 343L491 277L573 253L655 307L736 157L818 235L900 247L900 89L818 113L736 41L655 89L573 47L491 89L409 95L327 131L245 53L164 89L82 119L0 41Z" fill="#060c0b"></path><path d="M0 385L82 379L164 451L245 277L327 331L409 427L491 367L573 373L655 451L736 289L818 301L900 343L900 245L818 233L736 155L655 305L573 251L491 275L409 341L327 239L245 167L164 287L82 245L0 305Z" fill="#07100e"></path><path d="M0 529L82 541L164 547L245 511L327 559L409 523L491 541L573 565L655 547L736 523L818 523L900 523L900 341L818 299L736 287L655 449L573 371L491 365L409 425L327 329L245 275L164 449L82 377L0 383Z" fill="#081311"></path><path d="M0 601L82 601L164 601L245 601L327 601L409 601L491 601L573 601L655 601L736 601L818 601L900 601L900 521L818 521L736 521L655 545L573 563L491 539L409 521L327 557L245 509L164 545L82 539L0 527Z" fill="#091614"></path></svg>